<svg xmlns="http://www.w3.org/2000/svg" viewBox="0 0 600 400" role="img" aria-label="Map showing location of Basu Pancholi LLC CPA at 1121 Boyce Road, Pittsburgh">
  <rect width="600" height="400" fill="oklch(0.22 0.03 260)"/>
  <path d="M375.0,101.4L326.2,285.4" fill="none" stroke="oklch(0.32 0.015 260)" stroke-width="3" stroke-linecap="round"/>
  <path d="M83.7,218.4L93.2,184.1L103.8,146.1L121.7,81.5L122.6,78.1L136.0,24.2L138.9,12.3L139.6,5.0L139.5,-3.6L137.7,-21.7L134.3,-53.8" fill="none" stroke="oklch(0.32 0.015 260)" stroke-width="3" stroke-linecap="round"/>
  <path d="M292.8,276.3L277.5,326.1L271.2,346.1L262.2,376.5L245.8,429.4" fill="none" stroke="oklch(0.32 0.015 260)" stroke-width="3" stroke-linecap="round"/>
  <path d="M432.6,333.8L435.0,327.2L435.0,322.6L433.9,319.2L430.2,311.6L426.1,306.0L424.3,301.6L424.3,297.8L425.2,294.2L428.7,290.8L431.8,288.7L439.0,285.3L455.9,279.4L459.2,278.2L474.4,270.9L501.5,258.6L528.1,247.8L551.0,239.0L564.3,233.7L577.1,228.7L591.9,224.9L603.9,222.8L647.1,217.8L655.0,216.8" fill="none" stroke="oklch(0.32 0.015 260)" stroke-width="3" stroke-linecap="round"/>
  <path d="M245.8,429.4L231.6,453.8" fill="none" stroke="oklch(0.32 0.015 260)" stroke-width="3" stroke-linecap="round"/>
  <path d="M455.9,279.4L457.0,282.0L446.0,286.3L437.1,290.9L435.1,293.1L433.0,296.5L432.3,299.7L433.4,304.5L442.2,325.5L447.3,335.0L461.4,353.7L467.0,359.4L472.6,363.2L477.3,364.3L481.2,363.2L484.6,359.6L487.2,354.2L492.2,340.5L495.1,335.8L499.1,331.7L503.2,329.2L508.5,328.5L526.9,328.9L531.3,330.1L534.8,332.0L537.9,335.2L540.7,340.3L548.6,360.6L551.5,365.7L555.7,369.5L560.6,371.8L566.1,372.4L570.6,371.6L576.1,368.7L590.2,358.8L594.6,356.8L599.2,356.6L603.2,358.2L608.2,362.8L628.9,382.1L633.6,387.3L637.9,394.5L640.9,400.7L644.6,408.6L647.5,413.3L651.4,416.8L656.3,418.2" fill="none" stroke="oklch(0.32 0.015 260)" stroke-width="3" stroke-linecap="round"/>
  <path d="M457.0,282.0L463.7,286.7L473.3,296.5L491.8,305.2L517.5,312.4L544.5,316.3L563.5,317.1L573.6,322.2L587.5,315.2L606.2,309.6L612.9,302.2" fill="none" stroke="oklch(0.32 0.015 260)" stroke-width="3" stroke-linecap="round"/>
  <path d="M564.3,233.7L575.6,270.8L597.5,279.7L610.4,288.3L612.9,302.2L623.9,318.4L635.2,330.9" fill="none" stroke="oklch(0.32 0.015 260)" stroke-width="3" stroke-linecap="round"/>
  <path d="M423.1,-40.4L483.6,-35.6L506.7,-51.6L519.5,-52.3L632.0,-50.3L628.9,-29.9L631.5,-13.5" fill="none" stroke="oklch(0.32 0.015 260)" stroke-width="3" stroke-linecap="round"/>
  <path d="M423.1,-40.4L426.5,-28.6L428.6,-22.0L425.0,-14.0L423.9,-9.0L417.5,-0.2L413.1,2.0L410.8,8.9L408.3,13.1L406.3,22.4L406.7,27.6L409.6,31.9L410.8,40.2L408.5,61.3L409.3,72.6L407.4,81.4L407.7,85.6L413.9,98.6L414.2,103.9L421.3,118.0L421.4,122.0L428.0,134.8L427.3,140.9L429.1,145.6L429.0,155.9L428.5,164.4L432.1,176.8L434.4,187.2L435.6,200.8L438.6,205.8L438.6,209.2L439.9,213.6L439.1,223.1L444.5,234.3L445.4,241.3L448.6,246.7L450.9,257.5L453.4,266.9L451.7,270.2" fill="none" stroke="oklch(0.32 0.015 260)" stroke-width="3" stroke-linecap="round"/>
  <path d="M406.4,-55.6L408.5,-50.5L414.7,-45.2L417.7,-44.2L423.1,-40.4" fill="none" stroke="oklch(0.32 0.015 260)" stroke-width="3" stroke-linecap="round"/>
  <path d="M451.3,275.2L455.9,279.4" fill="none" stroke="oklch(0.32 0.015 260)" stroke-width="3" stroke-linecap="round"/>
  <path d="M451.7,270.2L451.3,275.2" fill="none" stroke="oklch(0.32 0.015 260)" stroke-width="3" stroke-linecap="round"/>
  <path d="M467.8,455.8L458.9,431.5L453.7,428.4L448.0,428.4L443.1,428.7L429.2,429.5L415.6,431.4L384.6,435.9L377.3,438.2L353.4,445.7L344.3,449.7L330.2,452.6L322.4,454.6L312.5,458.1" fill="none" stroke="oklch(0.32 0.015 260)" stroke-width="3" stroke-linecap="round"/>
  <path d="M30.1,209.3L56.1,213.0L83.7,218.4L87.9,219.6L143.1,234.9L173.5,243.3L183.6,246.0L226.7,257.7L251.3,264.6L292.8,276.3L312.2,281.4L326.2,285.4L336.3,288.3L361.9,295.8" fill="none" stroke="oklch(0.40 0.02 260)" stroke-width="6" stroke-linecap="round"/>
  <path d="M9.2,206.8L30.1,209.3" fill="none" stroke="oklch(0.40 0.02 260)" stroke-width="6" stroke-linecap="round"/>
  <path d="M361.9,295.8L380.5,301.2L400.2,310.4L420.5,323.9L432.6,333.8L447.3,353.3L456.4,369.8L460.6,377.6L464.1,387.3L466.8,396.7L470.9,415.2L480.7,455.5" fill="none" stroke="oklch(0.40 0.02 260)" stroke-width="6" stroke-linecap="round"/>
  <text x="326.2" y="285.4" font-size="9" fill="oklch(0.55 0.015 260)" text-anchor="middle" transform="rotate(-75.1,326.2,285.4)" style="font-family:system-ui,sans-serif">Maple Lane</text>
  <text x="271.2" y="346.1" font-size="9" fill="oklch(0.55 0.015 260)" text-anchor="middle" transform="rotate(-73.1,271.2,346.1)" style="font-family:system-ui,sans-serif">Hidden Valley Drive</text>
  <text x="455.9" y="279.4" font-size="9" fill="oklch(0.55 0.015 260)" text-anchor="middle" transform="rotate(-19.4,455.9,279.4)" style="font-family:system-ui,sans-serif">Birds Meadow Drive</text>
  <text x="226.7" y="257.7" font-size="11" fill="oklch(0.55 0.015 260)" text-anchor="middle" transform="rotate(15.4,226.7,257.7)" style="font-family:system-ui,sans-serif">Boyce Road</text>
  <text x="531.3" y="330.1" font-size="9" fill="oklch(0.55 0.015 260)" text-anchor="middle" transform="rotate(21.4,531.3,330.1)" style="font-family:system-ui,sans-serif">Perimeter Trail</text>
  <text x="544.5" y="316.3" font-size="9" fill="oklch(0.55 0.015 260)" text-anchor="middle" transform="rotate(5.8,544.5,316.3)" style="font-family:system-ui,sans-serif">Little Falls Trail</text>
  <text x="421.3" y="118.0" font-size="9" fill="oklch(0.55 0.015 260)" text-anchor="middle" transform="rotate(68.3,421.3,118.0)" style="font-family:system-ui,sans-serif">Wetlands Trail</text>
  <ellipse cx="300.0" cy="218.0" rx="8" ry="3" fill="oklch(0.10 0.02 260)" opacity="0.5"/>
  <g transform="translate(290.0,172.0)">
    <path d="M10 0C4.5 0 0 4.5 0 10c0 7.5 10 18 10 18s10-10.5 10-18C20 4.5 15.5 0 10 0z" fill="oklch(0.72 0.12 75)"/>
    <circle cx="10" cy="10" r="4" fill="oklch(0.18 0.04 260)"/>
  </g>
  <text x="592" y="392" font-size="7" fill="oklch(0.40 0.015 260)" text-anchor="end" style="font-family:system-ui,sans-serif">© OpenStreetMap contributors</text>
</svg>